<?xml version="1.0" standalone="no"?>
<!DOCTYPE svg PUBLIC "-//W3C//DTD SVG 20010904//EN"
 "http://www.w3.org/TR/2001/REC-SVG-20010904/DTD/svg10.dtd">
<svg version="1.0" xmlns="http://www.w3.org/2000/svg"
 width="512.000000pt" height="512.000000pt" viewBox="0 0 512.000000 512.000000"
 preserveAspectRatio="xMidYMid meet">

<g transform="translate(0.000000,512.000000) scale(0.100000,-0.100000)"
fill="#000000" stroke="none">
<path d="M2315 4680 c-161 -29 -340 -113 -730 -344 -137 -82 -333 -194 -435
-249 -293 -158 -414 -243 -589 -412 -276 -267 -427 -533 -507 -892 -27 -119
-24 -404 5 -540 59 -282 179 -519 381 -758 74 -87 425 -423 530 -506 322 -257
758 -445 1200 -518 732 -120 1458 15 2045 381 204 128 442 350 578 539 82 114
185 319 226 451 119 379 78 790 -117 1151 -86 159 -168 264 -372 471 -334 340
-495 463 -856 656 -97 52 -256 141 -353 198 -426 252 -543 312 -685 353 -81
23 -244 33 -321 19z m313 -179 c100 -34 260 -117 482 -251 221 -132 475 -277
580 -330 500 -252 866 -693 955 -1152 111 -572 -164 -1141 -735 -1523 -326
-218 -695 -349 -1135 -405 -147 -19 -202 -21 -405 -17 -250 6 -401 24 -602 72
-499 118 -930 365 -1211 695 -181 213 -284 418 -339 673 -28 133 -30 360 -5
489 71 358 272 673 592 931 128 103 191 143 421 270 104 57 297 167 429 244
513 300 600 335 800 329 80 -2 127 -9 173 -25z"/>
<path d="M1590 2998 c-80 -12 -151 -51 -209 -113 -62 -68 -86 -134 -84 -230 1
-88 26 -148 90 -216 136 -146 355 -151 503 -13 73 68 104 139 104 239 1 67 -3
89 -26 135 -34 68 -105 142 -167 171 -57 27 -138 37 -211 27z m10 -116 c114
-62 72 -232 -58 -232 -83 0 -135 46 -135 119 0 48 22 85 66 111 40 25 82 25
127 2z"/>
<path d="M3182 2999 c-76 -10 -174 -61 -217 -113 -59 -72 -80 -130 -80 -221 0
-71 4 -88 33 -147 156 -317 662 -211 663 138 0 79 -10 118 -45 178 -71 121
-206 184 -354 165z m-2 -114 c44 -23 70 -62 70 -107 0 -81 -49 -128 -135 -128
-94 0 -156 107 -107 186 36 56 114 79 172 49z"/>
<path d="M1979 2121 c-35 -36 -36 -43 -5 -126 77 -204 285 -368 466 -368 52 0
133 23 201 59 45 23 169 143 204 199 37 58 75 155 75 191 0 14 -11 36 -25 49
l-24 25 -431 0 -432 0 -29 -29z m621 -213 c30 -15 66 -36 80 -47 l25 -21 -40
-36 c-52 -45 -122 -81 -185 -95 -40 -9 -60 -7 -107 6 -54 16 -155 74 -170 98
-11 18 74 84 135 106 82 29 188 25 262 -11z"/>
</g>
</svg>
