<svg width="63" height="63" viewBox="0 0 63 63" fill="none" xmlns="http://www.w3.org/2000/svg">
<mask id="mask0_40_19" style="mask-type:luminance" maskUnits="userSpaceOnUse" x="0" y="0" width="63" height="63">
<path d="M62.3614 0H0.0332031V62.1987H62.3614V0Z" fill="white"/>
</mask>
<g mask="url(#mask0_40_19)">
<path d="M29.1563 0.0167403C29.0223 0.0289003 28.5956 0.0714606 28.2118 0.101861C19.3592 0.898343 11.0671 5.66508 5.81516 12.9915C2.89067 17.0651 1.02022 21.686 0.313467 26.5803C0.0636666 28.289 0.0332031 28.7936 0.0332031 31.11C0.0332031 33.4266 0.0636666 33.9312 0.313467 35.6396C2.00723 47.3195 10.336 57.1326 21.6318 60.7684C23.6546 61.4189 25.787 61.8628 28.2118 62.1303C29.1563 62.2337 33.2383 62.2337 34.1828 62.1303C38.3684 61.6682 41.9144 60.6346 45.4115 58.8532C45.9478 58.5795 46.0512 58.5067 45.9782 58.4458C45.9294 58.4092 43.6448 55.3511 40.9029 51.6544L35.9192 44.936L29.6742 35.7127C26.2378 30.6419 23.4109 26.4953 23.3865 26.4953C23.3621 26.4891 23.3378 30.5872 23.3256 35.5909C23.3073 44.3523 23.3012 44.705 23.1915 44.9116C23.0331 45.2096 22.9112 45.3312 22.6554 45.4649C22.4604 45.5623 22.2898 45.5805 21.3698 45.5805H20.3158L20.0355 45.4043C19.8527 45.2887 19.7187 45.1365 19.6273 44.9603L19.4994 44.6866L19.5115 32.4962L19.5298 20.2997L19.7187 20.0626C19.8162 19.9349 20.0233 19.7708 20.1696 19.6917C20.4193 19.5701 20.5168 19.558 21.5709 19.558C22.8138 19.558 23.0209 19.6066 23.3438 19.9592C23.4352 20.0565 26.8167 25.1394 30.8623 31.2621C34.9077 37.3845 40.4398 45.7445 43.1573 49.8486L48.0924 57.3088L48.3423 57.1448C50.5539 55.7098 52.8935 53.6668 54.7454 51.5389C58.6875 47.0214 61.2281 41.5129 62.0812 35.6396C62.3311 33.9312 62.3614 33.4266 62.3614 31.11C62.3614 28.7936 62.3311 28.289 62.0812 26.5803C60.3875 14.9007 52.0586 5.08749 40.7629 1.45163C38.7705 0.807144 36.6503 0.363302 34.2743 0.0957808C33.6892 0.0349805 29.662 -0.0318999 29.1563 0.0167403ZM41.9144 18.8283C42.2068 18.9743 42.4445 19.2539 42.5296 19.5458C42.5785 19.7039 42.5907 23.0844 42.5785 30.7026L42.5603 41.6345L40.6289 38.6795L38.6913 35.7248V27.7782C38.6913 22.6405 38.7157 19.7525 38.7523 19.6127C38.8497 19.2722 39.0629 19.0047 39.3553 18.8466C39.6051 18.7189 39.6966 18.7067 40.6533 18.7067C41.555 18.7067 41.7134 18.7189 41.9144 18.8283Z" fill="black"/>
</g>
</svg>
