<svg width="56" height="50" viewBox="0 0 56 50" fill="none" xmlns="http://www.w3.org/2000/svg">
<path d="M28.085 20.2536C29.0383 20.2537 29.9702 20.5329 30.7635 21.0561C31.5569 21.5793 32.176 22.3231 32.5432 23.1939C32.9103 24.0647 33.0089 25.0236 32.8267 25.9498C32.6444 26.8759 32.1894 27.728 31.5189 28.3988C30.8484 29.0695 29.9925 29.5289 29.0587 29.7192C28.125 29.9094 27.1553 29.822 26.2717 29.4679C25.3881 29.1138 24.63 28.5089 24.093 27.7292C23.556 26.9496 23.264 26.0302 23.2538 25.0866C23.2504 24.4553 23.3727 23.8295 23.6137 23.245C23.8546 22.6604 24.2095 22.1285 24.6581 21.6798C25.1067 21.231 25.6403 20.874 26.2282 20.6293C26.8162 20.3846 27.4471 20.257 28.085 20.2536ZM16.1234 45.5439C17.751 46.5156 21.2904 45.0325 25.424 41.1967C24.0424 39.6427 22.7404 38.0212 21.5229 36.3381C19.4391 36.1071 17.3694 35.7657 15.3225 35.3153C14.005 40.7876 14.4958 44.5466 16.1234 45.5439ZM17.9577 30.8658L17.2085 29.5617C16.9164 30.2799 16.6663 31.0142 16.4593 31.7608C17.1568 31.9143 17.9319 32.0421 18.7327 32.17L17.9577 30.8658ZM34.8537 28.9224L36.9463 25.0866L34.8537 21.2509C34.0786 19.8956 33.2519 18.6938 32.5027 17.4919C31.1076 17.4152 29.6351 17.4152 28.085 17.4152C26.5349 17.4152 25.0623 17.4152 23.6672 17.4152C22.918 18.617 22.0913 19.8189 21.3162 21.1742L19.2236 25.0866L21.3162 28.9224C22.0913 30.2777 22.918 31.4795 23.6672 32.6814C25.0623 32.6814 26.5349 32.6814 28.085 32.6814C29.6351 32.6814 31.1076 32.6814 32.5027 32.6814C33.2519 31.4795 34.0786 30.2777 34.8537 28.9224ZM28.085 11.7383C27.5941 12.3009 27.0774 12.889 26.5607 13.5794H29.6092C29.0925 12.889 28.5758 12.3009 28.085 11.7383ZM28.085 38.435C28.5758 37.8724 29.0925 37.2843 29.6092 36.5939H26.5607C27.0774 37.2843 27.5941 37.8724 28.085 38.435ZM40.0207 4.62939C38.4189 3.65767 34.8537 5.14082 30.7459 8.97656C32.1275 10.5305 33.4295 12.1521 34.647 13.8352C36.7289 14.0324 38.7987 14.3397 40.8474 14.7557C42.165 9.28342 41.6741 5.5244 40.0207 4.52711M38.2122 19.2052L38.9614 20.5093C39.2535 19.7911 39.5036 19.0568 39.7106 18.3102C39.0131 18.1568 38.2381 18.0289 37.4372 17.901L38.2122 19.2052ZM41.9583 1.30509C45.756 3.4531 46.1694 9.10442 44.5418 15.7019C51.1038 17.6197 55.8316 20.8162 55.8316 25.1122C55.8316 29.4082 51.1038 32.6047 44.5418 34.5226C46.1435 41.12 45.7302 46.7713 41.9583 48.9194C38.1864 51.0674 33.0453 48.6125 28.085 43.9329C23.1247 48.6125 17.9835 51.0674 14.1858 48.9194C10.3881 46.7713 10.0006 41.2479 11.6023 34.5226C5.04028 32.6047 0.3125 29.4082 0.3125 25.1122C0.3125 20.8162 5.04028 17.5942 11.6023 15.6763C10.0006 9.07884 10.4139 3.42753 14.1858 1.27952C17.9577 -0.868496 23.1247 1.58637 28.085 6.26597C33.0453 1.58637 38.1864 -0.868496 41.9583 1.27952M41.2091 25.0866C42.1063 26.9691 42.8997 28.8983 43.5859 30.8658C49.0112 29.2548 52.0597 26.9534 52.0597 25.0866C52.0597 23.2199 48.9337 20.9185 43.5859 19.3075C42.8997 21.275 42.1063 23.2042 41.2091 25.0866ZM14.9609 25.0866C14.0636 23.2042 13.2702 21.275 12.5841 19.3075C7.15873 20.9185 4.11022 23.2199 4.11022 25.0866C4.11022 26.9534 7.23624 29.2548 12.5841 30.8658C13.2702 28.8983 14.0636 26.9691 14.9609 25.0866ZM38.2122 30.8658L37.4372 32.17C38.2381 32.17 39.0131 31.9143 39.7106 31.7608C39.5036 31.0142 39.2535 30.2799 38.9614 29.5617L38.2122 30.8658ZM30.6684 41.1967C34.7762 45.0325 38.4189 46.5156 39.9432 45.5439C41.4674 44.5722 42.0874 40.8899 40.7699 35.3153C38.7211 35.7313 36.6514 36.0386 34.5695 36.2359C33.3548 37.9538 32.0528 39.6095 30.6684 41.1967ZM17.9577 19.3075L18.7327 18.0033C17.9319 18.0033 17.1568 18.259 16.4593 18.4125C16.6663 19.1591 16.9164 19.8934 17.2085 20.6116L17.9577 19.3075ZM25.5015 8.97656C21.3162 5.14082 17.751 3.65767 16.1234 4.62939C14.4958 5.60111 14.005 9.28342 15.3225 14.858C17.3713 14.4419 19.441 14.1347 21.5229 13.9374C22.7627 12.2177 24.0907 10.5619 25.5015 8.97656Z" fill="black"/>
</svg>
