<svg width="65" height="40" viewBox="0 0 65 40" fill="none" xmlns="http://www.w3.org/2000/svg">
<path fill-rule="evenodd" clip-rule="evenodd" d="M32.781 0.924072C24.1884 0.924072 18.8207 5.18416 16.6718 13.7075C19.8936 9.44746 23.6535 7.84952 27.9483 8.91374C30.4001 9.5214 32.1528 11.2865 34.0891 13.2381C37.2498 16.4179 40.9066 20.0993 48.8903 20.0993C57.483 20.0993 62.8506 15.8392 64.9996 7.31581C61.7777 11.5759 58.0211 13.1738 53.7231 12.1096C51.2713 11.5019 49.5186 9.73682 47.579 7.78522C44.4216 4.60221 40.768 0.924072 32.781 0.924072ZM16.6718 20.0993C8.07909 20.0993 2.71148 24.3594 0.5625 32.8827C3.78435 28.6194 7.54426 27.0247 11.839 28.0889C14.2908 28.6966 16.0435 30.4617 17.9831 32.4133C21.1405 35.5931 24.7973 39.2745 32.7843 39.2745C41.377 39.2745 46.7446 35.0144 48.8935 26.491C45.6717 30.7511 41.9118 32.349 37.617 31.2848C35.1652 30.6771 33.4125 28.912 31.4762 26.9604C28.3123 23.7806 24.6555 20.0993 16.6718 20.0993Z" fill="black"/>
</svg>
