<svg width="59" height="59" viewBox="0 0 59 59" fill="none" xmlns="http://www.w3.org/2000/svg">
<path d="M0 29.0994V55.5706C0 56.9644 1.12985 58.0942 2.52359 58.0942H55.5869C56.9807 58.0942 58.1105 56.9644 58.1105 55.5706V2.62809C58.1105 1.23434 56.9807 0.104492 55.5869 0.104492H2.52359C1.12985 0.104492 0 1.23434 0 2.62809V29.0994ZM46.8271 26.7861C46.8267 26.7865 46.8269 26.7872 46.8274 26.7873C48.3032 27.1553 49.4269 27.8166 50.4672 28.8819C50.9974 29.4473 51.791 30.4857 51.8582 30.7412C51.8764 30.8173 49.3522 32.5063 47.8195 33.4504C47.7632 33.4885 47.5362 33.2529 47.2893 32.8832C46.5429 31.7977 45.7566 31.3265 44.5563 31.2414C42.7966 31.1272 41.6616 32.0442 41.6707 33.5827C41.6616 33.9596 41.747 34.3384 41.9159 34.6682C42.3045 35.471 43.0327 35.9512 45.2826 36.9244C49.4448 38.7075 51.2226 39.8873 52.3285 41.5581C53.567 43.4265 53.8412 46.4093 53.0095 48.6365C52.0834 51.043 49.7935 52.6849 46.5774 53.2231C45.5841 53.4025 43.2197 53.3735 42.1501 53.176C39.8148 52.761 37.6011 51.6084 36.2392 50.0989C35.6998 49.5136 34.6593 47.975 34.7265 47.8717C34.7555 47.8337 34.9916 47.6833 35.2568 47.531C35.5219 47.3788 36.4952 46.8134 37.4141 46.2843L38.5472 45.6269C38.852 45.4501 39.2415 45.5394 39.4389 45.8312V45.8312C39.931 46.576 40.9988 47.5963 41.6435 47.9352C43.4976 48.9174 46.0417 48.776 47.3002 47.6525C47.8104 47.2284 48.0956 46.576 48.0574 45.9164C48.0574 45.2459 47.9721 44.9451 47.6216 44.4431C47.1676 43.8016 46.2505 43.2543 43.6301 42.1217C40.632 40.8278 39.3354 40.0359 38.1641 38.7619C37.4268 37.9211 36.8784 36.9316 36.5661 35.8642C36.3481 35.0433 36.2918 32.9847 36.4625 32.1638C37.0782 29.2661 39.2718 27.2564 42.4207 26.662C43.4427 26.4645 45.8237 26.5387 46.8268 26.7849C46.8274 26.785 46.8275 26.7857 46.8271 26.7861V26.7861ZM33.1884 29.2135V29.2135C33.1984 30.5187 32.1431 31.582 30.8379 31.582H28.1631C26.7693 31.582 25.6395 32.7119 25.6395 34.1056V50.5128C25.6395 51.9066 24.5096 53.0364 23.1159 53.0364H22.8096C21.4159 53.0364 20.286 51.9066 20.286 50.5128V34.1056C20.286 32.7119 19.1562 31.582 17.7624 31.582H15.0512C13.7692 31.582 12.7298 30.5427 12.7298 29.2606V29.2606C12.7298 28.3709 12.7436 27.5849 12.764 27.1712C12.7741 26.9651 12.897 26.8524 13.1032 26.8474C14.2223 26.8203 18.2558 26.8083 23.0009 26.816L30.7906 26.8382C32.1046 26.842 33.1723 27.8997 33.1884 29.2135V29.2135Z" fill="black"/>
</svg>
